<svg width="28.679in" height="41.106in" viewBox="0 0 28.679 41.106" xmlns="http://www.w3.org/2000/svg" version="1.1" preserveAspectRatio="xMidYMid meet"><g id="svgGroup" stroke-linecap="round" fill-rule="evenodd" font-size="9pt" stroke="#000" stroke-width="0.25mm" fill="none" style="stroke:#000;stroke-width:0.25mm;fill:none"><path d="M 3.092 40.988 L 4.675 40.988 L 4.675 41.106 L 6.278 41.106 L 6.278 40.988 L 7.861 40.988 L 7.861 41.106 L 9.464 41.106 L 9.464 40.988 L 11.047 40.988 L 11.047 41.106 L 12.65 41.106 L 12.65 40.988 L 14.139 40.988 L 14.139 39.554 L 13.935 39.554 L 13.935 37.971 L 14.139 37.971 L 14.139 36.368 L 13.935 36.368 L 13.935 34.785 L 14.139 34.785 L 14.139 33.182 L 13.935 33.182 L 13.935 31.599 L 14.139 31.599 L 14.139 29.996 L 13.935 29.996 L 13.935 28.413 L 14.139 28.413 L 14.139 26.978 L 12.65 26.978 L 12.65 26.86 L 11.047 26.86 L 11.047 26.978 L 9.464 26.978 L 9.464 26.86 L 7.861 26.86 L 7.861 26.978 L 6.278 26.978 L 6.278 26.86 L 4.675 26.86 L 4.675 26.978 L 3.092 26.978 L 3.092 26.86 L 1.489 26.86 L 1.489 26.978 L 0.204 26.978 L 0.204 28.403 L 0 28.403 L 0 30.006 L 0.204 30.006 L 0.204 31.589 L 0 31.589 L 0 33.192 L 0.204 33.192 L 0.204 34.775 L 0 34.775 L 0 36.378 L 0.204 36.378 L 0.204 37.961 L 0 37.961 L 0 39.564 L 0.204 39.564 L 0.204 40.988 L 1.489 40.988 L 1.489 41.106 L 3.092 41.106 L 3.092 40.988 Z" id="side1_outsideCutPath" stroke="#FF0000" stroke-width="0.001" style="stroke:#FF0000;stroke-width:0.001" vector-effect="non-scaling-stroke"/><path d="M 3.961 34.976 L 3.961 34.763 A 1.135 1.135 0 0 0 4.194 34.85 A 1.308 1.308 0 0 0 4.195 34.85 A 1.03 1.03 0 0 0 4.359 34.878 A 0.883 0.883 0 0 0 4.436 34.882 Q 4.55 34.882 4.63 34.859 A 0.348 0.348 0 0 0 4.713 34.825 Q 4.799 34.773 4.808 34.674 A 0.263 0.263 0 0 0 4.809 34.65 A 0.183 0.183 0 0 0 4.753 34.517 A 0.262 0.262 0 0 0 4.733 34.499 A 0.413 0.413 0 0 0 4.685 34.466 Q 4.6 34.414 4.434 34.35 Q 4.267 34.288 4.176 34.238 A 0.619 0.619 0 0 1 4.133 34.213 A 0.499 0.499 0 0 1 4.064 34.158 A 0.358 0.358 0 0 1 4.001 34.08 A 0.313 0.313 0 0 1 3.963 33.975 A 0.424 0.424 0 0 1 3.957 33.902 A 0.364 0.364 0 0 1 3.986 33.755 Q 4.023 33.67 4.108 33.609 Q 4.227 33.524 4.418 33.507 A 1.128 1.128 0 0 1 4.521 33.502 A 1.208 1.208 0 0 1 4.998 33.602 L 4.917 33.788 A 1.435 1.435 0 0 0 4.742 33.728 Q 4.651 33.704 4.568 33.697 A 0.775 0.775 0 0 0 4.504 33.694 A 0.841 0.841 0 0 0 4.419 33.698 Q 4.327 33.708 4.269 33.739 A 0.231 0.231 0 0 0 4.258 33.745 A 0.195 0.195 0 0 0 4.211 33.785 A 0.152 0.152 0 0 0 4.175 33.886 A 0.198 0.198 0 0 0 4.182 33.938 A 0.157 0.157 0 0 0 4.207 33.99 A 0.211 0.211 0 0 0 4.237 34.023 Q 4.265 34.048 4.307 34.071 A 0.667 0.667 0 0 0 4.348 34.092 Q 4.423 34.128 4.572 34.183 A 2.154 2.154 0 0 1 4.695 34.232 Q 4.865 34.306 4.936 34.381 A 0.34 0.34 0 0 1 5.029 34.596 A 0.452 0.452 0 0 1 5.03 34.631 Q 5.03 34.842 4.873 34.956 Q 4.715 35.071 4.431 35.071 Q 4.235 35.071 4.095 35.031 A 0.621 0.621 0 0 1 3.961 34.976 Z M 7.179 35.043 L 7.148 34.84 L 7.136 34.84 A 0.516 0.516 0 0 1 6.757 35.065 A 0.773 0.773 0 0 1 6.661 35.071 A 0.695 0.695 0 0 1 6.461 35.044 A 0.524 0.524 0 0 1 6.199 34.868 Q 6.034 34.665 6.034 34.291 A 1.36 1.36 0 0 1 6.052 34.065 Q 6.072 33.943 6.116 33.846 A 0.647 0.647 0 0 1 6.2 33.71 A 0.54 0.54 0 0 1 6.585 33.506 A 0.774 0.774 0 0 1 6.661 33.502 A 0.675 0.675 0 0 1 6.864 33.531 A 0.521 0.521 0 0 1 7.133 33.726 L 7.151 33.726 L 7.141 33.617 L 7.136 33.511 L 7.136 32.895 L 7.365 32.895 L 7.365 35.043 L 7.179 35.043 Z M 9.047 34.183 L 9.047 34.328 L 8.004 34.328 Q 8.009 34.51 8.07 34.632 A 0.43 0.43 0 0 0 8.139 34.733 A 0.416 0.416 0 0 0 8.358 34.856 A 0.631 0.631 0 0 0 8.499 34.871 A 1.211 1.211 0 0 0 8.952 34.781 A 1.387 1.387 0 0 0 8.982 34.769 L 8.982 34.973 A 1.376 1.376 0 0 1 8.856 35.02 A 1.052 1.052 0 0 1 8.752 35.048 Q 8.668 35.066 8.556 35.07 A 1.868 1.868 0 0 1 8.49 35.071 A 0.891 0.891 0 0 1 8.267 35.045 A 0.631 0.631 0 0 1 7.961 34.867 A 0.675 0.675 0 0 1 7.799 34.57 Q 7.767 34.448 7.767 34.299 A 1.204 1.204 0 0 1 7.789 34.061 Q 7.818 33.915 7.887 33.803 A 0.679 0.679 0 0 1 7.947 33.718 A 0.587 0.587 0 0 1 8.375 33.504 A 0.81 0.81 0 0 1 8.431 33.502 A 0.698 0.698 0 0 1 8.628 33.529 A 0.531 0.531 0 0 1 8.881 33.69 A 0.641 0.641 0 0 1 9.026 33.982 A 0.933 0.933 0 0 1 9.047 34.183 Z M 10.182 33.025 L 10.182 35.043 L 9.958 35.043 L 9.958 33.605 A 5.212 5.212 0 0 1 9.963 33.367 A 4.405 4.405 0 0 1 9.969 33.265 A 1.298 1.298 0 0 1 9.938 33.295 A 1.64 1.64 0 0 1 9.904 33.326 Q 9.868 33.357 9.576 33.595 L 9.454 33.438 L 9.988 33.025 L 10.182 33.025 Z M 5.632 33.53 L 5.632 35.043 L 5.403 35.043 L 5.403 33.53 L 5.632 33.53 Z M 7.136 34.339 L 7.136 34.291 Q 7.136 34.018 7.059 33.877 A 0.344 0.344 0 0 0 7.029 33.832 A 0.335 0.335 0 0 0 6.86 33.718 Q 6.784 33.694 6.687 33.694 A 0.411 0.411 0 0 0 6.549 33.716 A 0.342 0.342 0 0 0 6.378 33.851 A 0.54 0.54 0 0 0 6.309 34 Q 6.288 34.07 6.279 34.154 A 1.278 1.278 0 0 0 6.271 34.294 Q 6.271 34.472 6.312 34.597 A 0.483 0.483 0 0 0 6.378 34.731 A 0.345 0.345 0 0 0 6.628 34.875 A 0.513 0.513 0 0 0 6.69 34.879 Q 6.925 34.879 7.03 34.751 Q 7.129 34.632 7.135 34.375 A 1.453 1.453 0 0 0 7.136 34.339 Z M 8.01 34.142 L 8.801 34.142 A 0.781 0.781 0 0 0 8.792 34.016 Q 8.781 33.949 8.757 33.895 A 0.355 0.355 0 0 0 8.704 33.81 A 0.314 0.314 0 0 0 8.515 33.702 A 0.471 0.471 0 0 0 8.428 33.694 A 0.452 0.452 0 0 0 8.298 33.712 A 0.349 0.349 0 0 0 8.138 33.813 A 0.453 0.453 0 0 0 8.048 33.965 Q 8.025 34.027 8.014 34.103 A 0.866 0.866 0 0 0 8.01 34.142 Z M 5.384 33.12 Q 5.384 33.041 5.422 33.005 A 0.133 0.133 0 0 1 5.507 32.968 A 0.175 0.175 0 0 1 5.519 32.968 Q 5.574 32.968 5.614 33.005 A 0.116 0.116 0 0 1 5.645 33.054 Q 5.651 33.073 5.653 33.095 A 0.262 0.262 0 0 1 5.654 33.12 A 0.237 0.237 0 0 1 5.651 33.163 Q 5.646 33.188 5.636 33.206 A 0.112 0.112 0 0 1 5.614 33.235 Q 5.574 33.273 5.519 33.273 Q 5.461 33.273 5.422 33.235 Q 5.39 33.204 5.385 33.146 A 0.271 0.271 0 0 1 5.384 33.12 Z" id="side1_labelLayer" stroke="#777777" fill="#777777" style="stroke:#777777;fill:#777777" vector-effect="non-scaling-stroke"/><path d="M 3.092 26.617 L 4.675 26.617 L 4.675 26.735 L 6.278 26.735 L 6.278 26.617 L 7.861 26.617 L 7.861 26.735 L 9.464 26.735 L 9.464 26.617 L 11.047 26.617 L 11.047 26.735 L 12.65 26.735 L 12.65 26.617 L 14.139 26.617 L 14.139 25.183 L 13.935 25.183 L 13.935 23.6 L 14.139 23.6 L 14.139 21.997 L 13.935 21.997 L 13.935 20.414 L 14.139 20.414 L 14.139 18.811 L 13.935 18.811 L 13.935 17.228 L 14.139 17.228 L 14.139 15.625 L 13.935 15.625 L 13.935 14.042 L 14.139 14.042 L 14.139 12.607 L 12.65 12.607 L 12.65 12.489 L 11.047 12.489 L 11.047 12.607 L 9.464 12.607 L 9.464 12.489 L 7.861 12.489 L 7.861 12.607 L 6.278 12.607 L 6.278 12.489 L 4.675 12.489 L 4.675 12.607 L 3.092 12.607 L 3.092 12.489 L 1.489 12.489 L 1.489 12.607 L 0.204 12.607 L 0.204 14.032 L 0 14.032 L 0 15.635 L 0.204 15.635 L 0.204 17.218 L 0 17.218 L 0 18.821 L 0.204 18.821 L 0.204 20.404 L 0 20.404 L 0 22.007 L 0.204 22.007 L 0.204 23.59 L 0 23.59 L 0 25.193 L 0.204 25.193 L 0.204 26.617 L 1.489 26.617 L 1.489 26.735 L 3.092 26.735 L 3.092 26.617 Z" id="side0_outsideCutPath" stroke="#FF0000" stroke-width="0.001" style="stroke:#FF0000;stroke-width:0.001" vector-effect="non-scaling-stroke"/><path d="M 3.717 20.605 L 3.717 20.392 A 1.135 1.135 0 0 0 3.95 20.479 A 1.308 1.308 0 0 0 3.951 20.479 A 1.03 1.03 0 0 0 4.115 20.507 A 0.883 0.883 0 0 0 4.192 20.511 Q 4.306 20.511 4.386 20.488 A 0.348 0.348 0 0 0 4.468 20.454 Q 4.554 20.402 4.564 20.303 A 0.263 0.263 0 0 0 4.565 20.279 A 0.183 0.183 0 0 0 4.509 20.146 A 0.262 0.262 0 0 0 4.488 20.128 A 0.413 0.413 0 0 0 4.441 20.095 Q 4.356 20.043 4.189 19.979 Q 4.022 19.917 3.932 19.867 A 0.619 0.619 0 0 1 3.889 19.842 A 0.499 0.499 0 0 1 3.82 19.787 A 0.358 0.358 0 0 1 3.757 19.709 A 0.313 0.313 0 0 1 3.719 19.604 A 0.424 0.424 0 0 1 3.713 19.531 A 0.364 0.364 0 0 1 3.742 19.384 Q 3.779 19.299 3.863 19.238 Q 3.983 19.153 4.173 19.136 A 1.128 1.128 0 0 1 4.276 19.131 A 1.208 1.208 0 0 1 4.754 19.231 L 4.673 19.417 A 1.435 1.435 0 0 0 4.498 19.357 Q 4.407 19.333 4.323 19.326 A 0.775 0.775 0 0 0 4.26 19.323 A 0.841 0.841 0 0 0 4.174 19.327 Q 4.082 19.337 4.025 19.368 A 0.231 0.231 0 0 0 4.014 19.374 A 0.195 0.195 0 0 0 3.967 19.414 A 0.152 0.152 0 0 0 3.931 19.515 A 0.198 0.198 0 0 0 3.937 19.567 A 0.157 0.157 0 0 0 3.962 19.619 A 0.211 0.211 0 0 0 3.992 19.652 Q 4.02 19.677 4.062 19.7 A 0.667 0.667 0 0 0 4.103 19.721 Q 4.179 19.757 4.327 19.812 A 2.154 2.154 0 0 1 4.451 19.861 Q 4.62 19.935 4.691 20.01 A 0.34 0.34 0 0 1 4.784 20.225 A 0.452 0.452 0 0 1 4.786 20.26 Q 4.786 20.471 4.628 20.585 Q 4.471 20.7 4.186 20.7 Q 3.991 20.7 3.851 20.66 A 0.621 0.621 0 0 1 3.717 20.605 Z M 6.934 20.672 L 6.904 20.469 L 6.891 20.469 A 0.516 0.516 0 0 1 6.513 20.694 A 0.773 0.773 0 0 1 6.416 20.7 A 0.695 0.695 0 0 1 6.216 20.673 A 0.524 0.524 0 0 1 5.955 20.497 Q 5.79 20.294 5.79 19.92 A 1.36 1.36 0 0 1 5.807 19.694 Q 5.828 19.572 5.872 19.475 A 0.647 0.647 0 0 1 5.955 19.339 A 0.54 0.54 0 0 1 6.34 19.135 A 0.774 0.774 0 0 1 6.416 19.131 A 0.675 0.675 0 0 1 6.619 19.16 A 0.521 0.521 0 0 1 6.889 19.355 L 6.907 19.355 L 6.897 19.246 L 6.891 19.14 L 6.891 18.524 L 7.121 18.524 L 7.121 20.672 L 6.934 20.672 Z M 8.802 19.812 L 8.802 19.957 L 7.76 19.957 Q 7.765 20.139 7.826 20.261 A 0.43 0.43 0 0 0 7.895 20.362 A 0.416 0.416 0 0 0 8.113 20.485 A 0.631 0.631 0 0 0 8.254 20.5 A 1.211 1.211 0 0 0 8.708 20.41 A 1.387 1.387 0 0 0 8.737 20.398 L 8.737 20.602 A 1.376 1.376 0 0 1 8.612 20.649 A 1.052 1.052 0 0 1 8.508 20.677 Q 8.423 20.695 8.312 20.699 A 1.868 1.868 0 0 1 8.246 20.7 A 0.891 0.891 0 0 1 8.023 20.674 A 0.631 0.631 0 0 1 7.716 20.496 A 0.675 0.675 0 0 1 7.555 20.199 Q 7.522 20.077 7.522 19.928 A 1.204 1.204 0 0 1 7.545 19.689 Q 7.574 19.544 7.642 19.432 A 0.679 0.679 0 0 1 7.703 19.347 A 0.587 0.587 0 0 1 8.131 19.133 A 0.81 0.81 0 0 1 8.187 19.131 A 0.698 0.698 0 0 1 8.383 19.158 A 0.531 0.531 0 0 1 8.637 19.319 A 0.641 0.641 0 0 1 8.782 19.611 A 0.933 0.933 0 0 1 8.802 19.812 Z M 10.413 19.934 A 2.667 2.667 0 0 0 10.426 19.66 Q 10.426 19.344 10.36 19.122 A 0.921 0.921 0 0 0 10.256 18.888 A 0.71 0.71 0 0 0 10.245 18.873 Q 10.141 18.719 9.981 18.659 A 0.64 0.64 0 0 0 9.756 18.622 A 0.78 0.78 0 0 0 9.643 18.63 A 0.532 0.532 0 0 0 9.255 18.877 A 0.693 0.693 0 0 0 9.225 18.929 Q 9.133 19.105 9.104 19.385 A 2.709 2.709 0 0 0 9.091 19.66 Q 9.091 19.984 9.159 20.208 A 0.903 0.903 0 0 0 9.261 20.436 A 0.707 0.707 0 0 0 9.271 20.451 Q 9.375 20.604 9.534 20.663 A 0.636 0.636 0 0 0 9.756 20.7 A 0.782 0.782 0 0 0 9.873 20.692 A 0.534 0.534 0 0 0 10.261 20.442 A 0.703 0.703 0 0 0 10.286 20.4 Q 10.383 20.221 10.413 19.934 Z M 9.394 20.225 A 0.613 0.613 0 0 0 9.426 20.302 A 0.395 0.395 0 0 0 9.516 20.419 Q 9.596 20.49 9.712 20.501 A 0.471 0.471 0 0 0 9.756 20.503 Q 9.964 20.503 10.068 20.336 A 0.471 0.471 0 0 0 10.089 20.299 Q 10.176 20.127 10.189 19.789 A 3.245 3.245 0 0 0 10.191 19.66 Q 10.191 19.295 10.119 19.094 A 0.62 0.62 0 0 0 10.089 19.023 Q 9.997 18.843 9.805 18.823 A 0.476 0.476 0 0 0 9.756 18.821 Q 9.53 18.821 9.426 19.02 A 0.695 0.695 0 0 0 9.374 19.16 Q 9.335 19.306 9.326 19.522 A 3.263 3.263 0 0 0 9.323 19.66 Q 9.323 20.025 9.394 20.225 Z M 5.388 19.159 L 5.388 20.672 L 5.159 20.672 L 5.159 19.159 L 5.388 19.159 Z M 6.891 19.968 L 6.891 19.92 Q 6.891 19.647 6.814 19.506 A 0.344 0.344 0 0 0 6.784 19.461 A 0.335 0.335 0 0 0 6.615 19.347 Q 6.54 19.323 6.443 19.323 A 0.411 0.411 0 0 0 6.305 19.345 A 0.342 0.342 0 0 0 6.134 19.48 A 0.54 0.54 0 0 0 6.065 19.629 Q 6.044 19.699 6.034 19.783 A 1.278 1.278 0 0 0 6.027 19.923 Q 6.027 20.101 6.067 20.226 A 0.483 0.483 0 0 0 6.133 20.36 A 0.345 0.345 0 0 0 6.384 20.504 A 0.513 0.513 0 0 0 6.445 20.508 Q 6.68 20.508 6.786 20.38 Q 6.885 20.261 6.891 20.004 A 1.453 1.453 0 0 0 6.891 19.968 Z M 7.765 19.771 L 8.557 19.771 A 0.781 0.781 0 0 0 8.547 19.645 Q 8.536 19.578 8.512 19.524 A 0.355 0.355 0 0 0 8.46 19.439 A 0.314 0.314 0 0 0 8.271 19.331 A 0.471 0.471 0 0 0 8.184 19.323 A 0.452 0.452 0 0 0 8.053 19.341 A 0.349 0.349 0 0 0 7.893 19.442 A 0.453 0.453 0 0 0 7.803 19.594 Q 7.78 19.656 7.77 19.732 A 0.866 0.866 0 0 0 7.765 19.771 Z M 5.139 18.749 Q 5.139 18.67 5.178 18.634 A 0.133 0.133 0 0 1 5.263 18.597 A 0.175 0.175 0 0 1 5.275 18.597 Q 5.33 18.597 5.37 18.634 A 0.116 0.116 0 0 1 5.4 18.683 Q 5.407 18.702 5.409 18.724 A 0.262 0.262 0 0 1 5.41 18.749 A 0.237 0.237 0 0 1 5.406 18.792 Q 5.402 18.817 5.392 18.835 A 0.112 0.112 0 0 1 5.37 18.864 Q 5.33 18.902 5.275 18.902 Q 5.217 18.902 5.178 18.864 Q 5.146 18.833 5.14 18.775 A 0.271 0.271 0 0 1 5.139 18.749 Z" id="side0_labelLayer" stroke="#777777" fill="#777777" style="stroke:#777777;fill:#777777" vector-effect="non-scaling-stroke"/><path d="M 17.356 40.988 L 18.939 40.988 L 18.939 41.106 L 20.542 41.106 L 20.542 40.988 L 22.125 40.988 L 22.125 41.106 L 23.728 41.106 L 23.728 40.988 L 25.311 40.988 L 25.311 41.106 L 26.914 41.106 L 26.914 40.988 L 28.403 40.988 L 28.403 39.554 L 28.199 39.554 L 28.199 37.971 L 28.403 37.971 L 28.403 36.368 L 28.199 36.368 L 28.199 34.785 L 28.403 34.785 L 28.403 33.182 L 28.199 33.182 L 28.199 31.599 L 28.403 31.599 L 28.403 29.996 L 28.199 29.996 L 28.199 28.413 L 28.403 28.413 L 28.403 26.978 L 26.914 26.978 L 26.914 26.86 L 25.311 26.86 L 25.311 26.978 L 23.728 26.978 L 23.728 26.86 L 22.125 26.86 L 22.125 26.978 L 20.542 26.978 L 20.542 26.86 L 18.939 26.86 L 18.939 26.978 L 17.356 26.978 L 17.356 26.86 L 15.753 26.86 L 15.753 26.978 L 14.468 26.978 L 14.468 28.403 L 14.264 28.403 L 14.264 30.006 L 14.468 30.006 L 14.468 31.589 L 14.264 31.589 L 14.264 33.192 L 14.468 33.192 L 14.468 34.775 L 14.264 34.775 L 14.264 36.378 L 14.468 36.378 L 14.468 37.961 L 14.264 37.961 L 14.264 39.564 L 14.468 39.564 L 14.468 40.988 L 15.753 40.988 L 15.753 41.106 L 17.356 41.106 L 17.356 40.988 Z" id="side2_outsideCutPath" stroke="#FF0000" stroke-width="0.001" style="stroke:#FF0000;stroke-width:0.001" vector-effect="non-scaling-stroke"/><path d="M 24.685 34.831 L 24.685 35.043 L 23.358 35.043 L 23.358 34.846 L 23.889 34.312 A 10.095 10.095 0 0 0 23.994 34.204 Q 24.15 34.041 24.21 33.961 Q 24.287 33.856 24.326 33.757 A 0.578 0.578 0 0 0 24.364 33.567 A 0.665 0.665 0 0 0 24.364 33.543 A 0.429 0.429 0 0 0 24.351 33.432 A 0.308 0.308 0 0 0 24.266 33.286 A 0.324 0.324 0 0 0 24.12 33.207 Q 24.07 33.194 24.011 33.192 A 0.62 0.62 0 0 0 23.994 33.192 A 0.684 0.684 0 0 0 23.756 33.233 A 0.658 0.658 0 0 0 23.668 33.274 Q 23.625 33.297 23.579 33.329 A 1.435 1.435 0 0 0 23.505 33.384 L 23.384 33.228 A 1.042 1.042 0 0 1 23.656 33.061 A 0.879 0.879 0 0 1 23.991 32.996 A 0.895 0.895 0 0 1 24.172 33.013 Q 24.282 33.035 24.366 33.088 A 0.499 0.499 0 0 1 24.437 33.141 A 0.481 0.481 0 0 1 24.594 33.451 A 0.676 0.676 0 0 1 24.599 33.533 A 0.72 0.72 0 0 1 24.538 33.818 A 0.904 0.904 0 0 1 24.491 33.913 Q 24.384 34.1 24.088 34.388 L 23.646 34.82 L 23.646 34.831 L 24.685 34.831 Z M 17.987 34.976 L 17.987 34.763 A 1.135 1.135 0 0 0 18.22 34.85 A 1.308 1.308 0 0 0 18.221 34.85 A 1.03 1.03 0 0 0 18.384 34.878 A 0.883 0.883 0 0 0 18.462 34.882 Q 18.575 34.882 18.656 34.859 A 0.348 0.348 0 0 0 18.738 34.825 Q 18.824 34.773 18.833 34.674 A 0.263 0.263 0 0 0 18.834 34.65 A 0.183 0.183 0 0 0 18.778 34.517 A 0.262 0.262 0 0 0 18.758 34.499 A 0.413 0.413 0 0 0 18.71 34.466 Q 18.625 34.414 18.459 34.35 Q 18.292 34.288 18.201 34.238 A 0.619 0.619 0 0 1 18.158 34.213 A 0.499 0.499 0 0 1 18.089 34.158 A 0.358 0.358 0 0 1 18.026 34.08 A 0.313 0.313 0 0 1 17.989 33.975 A 0.424 0.424 0 0 1 17.982 33.902 A 0.364 0.364 0 0 1 18.011 33.755 Q 18.048 33.67 18.133 33.609 Q 18.253 33.524 18.443 33.507 A 1.128 1.128 0 0 1 18.546 33.502 A 1.208 1.208 0 0 1 19.024 33.602 L 18.942 33.788 A 1.435 1.435 0 0 0 18.767 33.728 Q 18.676 33.704 18.593 33.697 A 0.775 0.775 0 0 0 18.529 33.694 A 0.841 0.841 0 0 0 18.444 33.698 Q 18.352 33.708 18.294 33.739 A 0.231 0.231 0 0 0 18.283 33.745 A 0.195 0.195 0 0 0 18.236 33.785 A 0.152 0.152 0 0 0 18.201 33.886 A 0.198 0.198 0 0 0 18.207 33.938 A 0.157 0.157 0 0 0 18.232 33.99 A 0.211 0.211 0 0 0 18.262 34.023 Q 18.29 34.048 18.332 34.071 A 0.667 0.667 0 0 0 18.373 34.092 Q 18.448 34.128 18.597 34.183 A 2.154 2.154 0 0 1 18.721 34.232 Q 18.89 34.306 18.961 34.381 A 0.34 0.34 0 0 1 19.054 34.596 A 0.452 0.452 0 0 1 19.055 34.631 Q 19.055 34.842 18.898 34.956 Q 18.74 35.071 18.456 35.071 Q 18.26 35.071 18.12 35.031 A 0.621 0.621 0 0 1 17.987 34.976 Z M 21.204 35.043 L 21.173 34.84 L 21.161 34.84 A 0.516 0.516 0 0 1 20.782 35.065 A 0.773 0.773 0 0 1 20.686 35.071 A 0.695 0.695 0 0 1 20.486 35.044 A 0.524 0.524 0 0 1 20.224 34.868 Q 20.059 34.665 20.059 34.291 A 1.36 1.36 0 0 1 20.077 34.065 Q 20.097 33.943 20.141 33.846 A 0.647 0.647 0 0 1 20.225 33.71 A 0.54 0.54 0 0 1 20.61 33.506 A 0.774 0.774 0 0 1 20.686 33.502 A 0.675 0.675 0 0 1 20.889 33.531 A 0.521 0.521 0 0 1 21.158 33.726 L 21.176 33.726 L 21.166 33.617 L 21.161 33.511 L 21.161 32.895 L 21.39 32.895 L 21.39 35.043 L 21.204 35.043 Z M 23.072 34.183 L 23.072 34.328 L 22.029 34.328 Q 22.034 34.51 22.095 34.632 A 0.43 0.43 0 0 0 22.164 34.733 A 0.416 0.416 0 0 0 22.383 34.856 A 0.631 0.631 0 0 0 22.524 34.871 A 1.211 1.211 0 0 0 22.977 34.781 A 1.387 1.387 0 0 0 23.007 34.769 L 23.007 34.973 A 1.376 1.376 0 0 1 22.882 35.02 A 1.052 1.052 0 0 1 22.777 35.048 Q 22.693 35.066 22.581 35.07 A 1.868 1.868 0 0 1 22.515 35.071 A 0.891 0.891 0 0 1 22.293 35.045 A 0.631 0.631 0 0 1 21.986 34.867 A 0.675 0.675 0 0 1 21.825 34.57 Q 21.792 34.448 21.792 34.299 A 1.204 1.204 0 0 1 21.814 34.061 Q 21.844 33.915 21.912 33.803 A 0.679 0.679 0 0 1 21.972 33.718 A 0.587 0.587 0 0 1 22.4 33.504 A 0.81 0.81 0 0 1 22.456 33.502 A 0.698 0.698 0 0 1 22.653 33.529 A 0.531 0.531 0 0 1 22.906 33.69 A 0.641 0.641 0 0 1 23.051 33.982 A 0.933 0.933 0 0 1 23.072 34.183 Z M 19.657 33.53 L 19.657 35.043 L 19.428 35.043 L 19.428 33.53 L 19.657 33.53 Z M 21.161 34.339 L 21.161 34.291 Q 21.161 34.018 21.084 33.877 A 0.344 0.344 0 0 0 21.054 33.832 A 0.335 0.335 0 0 0 20.885 33.718 Q 20.809 33.694 20.712 33.694 A 0.411 0.411 0 0 0 20.574 33.716 A 0.342 0.342 0 0 0 20.404 33.851 A 0.54 0.54 0 0 0 20.334 34 Q 20.313 34.07 20.304 34.154 A 1.278 1.278 0 0 0 20.297 34.294 Q 20.297 34.472 20.337 34.597 A 0.483 0.483 0 0 0 20.403 34.731 A 0.345 0.345 0 0 0 20.653 34.875 A 0.513 0.513 0 0 0 20.715 34.879 Q 20.95 34.879 21.055 34.751 Q 21.154 34.632 21.16 34.375 A 1.453 1.453 0 0 0 21.161 34.339 Z M 22.035 34.142 L 22.826 34.142 A 0.781 0.781 0 0 0 22.817 34.016 Q 22.806 33.949 22.782 33.895 A 0.355 0.355 0 0 0 22.729 33.81 A 0.314 0.314 0 0 0 22.54 33.702 A 0.471 0.471 0 0 0 22.453 33.694 A 0.452 0.452 0 0 0 22.323 33.712 A 0.349 0.349 0 0 0 22.163 33.813 A 0.453 0.453 0 0 0 22.073 33.965 Q 22.05 34.027 22.039 34.103 A 0.866 0.866 0 0 0 22.035 34.142 Z M 19.409 33.12 Q 19.409 33.041 19.447 33.005 A 0.133 0.133 0 0 1 19.532 32.968 A 0.175 0.175 0 0 1 19.544 32.968 Q 19.599 32.968 19.639 33.005 A 0.116 0.116 0 0 1 19.67 33.054 Q 19.676 33.073 19.678 33.095 A 0.262 0.262 0 0 1 19.679 33.12 A 0.237 0.237 0 0 1 19.676 33.163 Q 19.671 33.188 19.661 33.206 A 0.112 0.112 0 0 1 19.639 33.235 Q 19.599 33.273 19.544 33.273 Q 19.486 33.273 19.447 33.235 Q 19.416 33.204 19.41 33.146 A 0.271 0.271 0 0 1 19.409 33.12 Z" id="side2_labelLayer" stroke="#777777" fill="#777777" style="stroke:#777777;fill:#777777" vector-effect="non-scaling-stroke"/><path d="M 1.568 12.246 L 3.151 12.246 L 3.151 12.364 L 4.754 12.364 L 4.754 12.246 L 6.337 12.246 L 6.337 12.364 L 7.94 12.364 L 7.94 12.246 L 9.523 12.246 L 9.523 12.364 L 11.126 12.364 L 11.126 12.246 L 12.709 12.246 L 12.709 12.364 L 14.274 12.364 L 14.277 12.359 L 13.494 11.004 L 13.392 11.063 L 12.601 9.692 L 12.703 9.633 L 11.901 8.245 L 11.799 8.304 L 11.008 6.933 L 11.11 6.874 L 10.308 5.485 L 10.206 5.544 L 9.415 4.173 L 9.517 4.114 L 8.715 2.726 L 8.613 2.785 L 7.822 1.414 L 7.924 1.355 L 7.141 0 L 7.135 0 L 6.353 1.355 L 6.455 1.414 L 5.664 2.785 L 5.562 2.726 L 4.76 4.114 L 4.862 4.173 L 4.071 5.544 L 3.969 5.485 L 3.167 6.874 L 3.269 6.933 L 2.478 8.304 L 2.376 8.245 L 1.574 9.633 L 1.676 9.692 L 0.885 11.063 L 0.783 11.004 L 0 12.359 L 0.003 12.364 L 1.568 12.364 L 1.568 12.246 Z" id="top_outsideCutPath" stroke="#FF0000" stroke-width="0.001" style="stroke:#FF0000;stroke-width:0.001" vector-effect="non-scaling-stroke"/><path d="M 8.027 8.589 L 8.013 8.589 A 1.897 1.897 0 0 1 8.025 8.729 A 1.589 1.589 0 0 1 8.027 8.808 L 8.027 9.353 L 7.827 9.353 L 7.827 7.436 L 7.99 7.436 L 8.017 7.617 L 8.027 7.617 A 0.54 0.54 0 0 1 8.105 7.528 A 0.417 0.417 0 0 1 8.207 7.46 A 0.502 0.502 0 0 1 8.351 7.418 A 0.65 0.65 0 0 1 8.442 7.412 Q 8.706 7.412 8.849 7.591 Q 8.966 7.738 8.987 7.982 A 1.305 1.305 0 0 1 8.992 8.096 A 1.175 1.175 0 0 1 8.976 8.294 Q 8.958 8.399 8.919 8.484 A 0.563 0.563 0 0 1 8.846 8.603 Q 8.701 8.783 8.442 8.783 A 0.608 0.608 0 0 1 8.29 8.765 A 0.529 0.529 0 0 1 8.206 8.735 Q 8.099 8.688 8.027 8.589 Z M 6.069 8.594 L 6.069 8.747 A 0.197 0.197 0 0 1 6.045 8.756 Q 6.02 8.764 5.985 8.771 A 0.749 0.749 0 0 1 5.973 8.773 A 0.869 0.869 0 0 1 5.916 8.78 Q 5.889 8.783 5.865 8.783 A 0.514 0.514 0 0 1 5.859 8.783 A 0.524 0.524 0 0 1 5.704 8.762 Q 5.475 8.691 5.475 8.379 L 5.475 7.591 L 5.285 7.591 L 5.285 7.495 L 5.475 7.412 L 5.559 7.129 L 5.675 7.129 L 5.675 7.436 L 6.059 7.436 L 6.059 7.591 L 5.675 7.591 L 5.675 8.37 Q 5.675 8.454 5.703 8.511 A 0.194 0.194 0 0 0 5.732 8.554 Q 5.788 8.618 5.888 8.618 A 0.658 0.658 0 0 0 5.984 8.611 A 0.612 0.612 0 0 0 5.99 8.61 A 1.085 1.085 0 0 0 6.019 8.605 Q 6.047 8.6 6.066 8.594 A 0.302 0.302 0 0 0 6.069 8.594 Z M 7.457 8.298 A 1.035 1.035 0 0 0 7.475 8.096 A 1.176 1.176 0 0 0 7.475 8.064 Q 7.472 7.954 7.448 7.861 A 0.624 0.624 0 0 0 7.312 7.596 A 0.525 0.525 0 0 0 7.068 7.439 A 0.674 0.674 0 0 0 6.87 7.412 A 0.778 0.778 0 0 0 6.731 7.423 A 0.53 0.53 0 0 0 6.421 7.592 A 0.554 0.554 0 0 0 6.353 7.686 Q 6.301 7.778 6.278 7.895 A 1.041 1.041 0 0 0 6.259 8.096 A 1.003 1.003 0 0 0 6.272 8.259 A 0.741 0.741 0 0 0 6.334 8.461 A 0.659 0.659 0 0 0 6.349 8.489 A 0.543 0.543 0 0 0 6.547 8.7 A 0.558 0.558 0 0 0 6.675 8.757 A 0.644 0.644 0 0 0 6.862 8.783 A 0.778 0.778 0 0 0 6.998 8.772 A 0.534 0.534 0 0 0 7.312 8.601 Q 7.421 8.481 7.457 8.298 Z M 6.467 8.096 Q 6.467 8.35 6.568 8.482 A 0.329 0.329 0 0 0 6.782 8.608 A 0.498 0.498 0 0 0 6.867 8.615 A 0.466 0.466 0 0 0 6.99 8.6 A 0.324 0.324 0 0 0 7.166 8.483 A 0.43 0.43 0 0 0 7.233 8.353 Q 7.268 8.245 7.268 8.096 A 1 1 0 0 0 7.258 7.954 Q 7.248 7.881 7.226 7.822 A 0.413 0.413 0 0 0 7.166 7.713 A 0.33 0.33 0 0 0 6.961 7.59 A 0.506 0.506 0 0 0 6.864 7.582 A 0.477 0.477 0 0 0 6.746 7.596 A 0.319 0.319 0 0 0 6.567 7.711 Q 6.467 7.84 6.467 8.096 Z M 8.027 8.051 L 8.027 8.096 Q 8.027 8.333 8.094 8.455 A 0.302 0.302 0 0 0 8.12 8.495 Q 8.203 8.603 8.377 8.614 A 0.644 0.644 0 0 0 8.418 8.615 Q 8.583 8.615 8.679 8.487 A 0.399 0.399 0 0 0 8.687 8.476 Q 8.784 8.338 8.784 8.094 Q 8.784 7.931 8.742 7.818 A 0.425 0.425 0 0 0 8.687 7.714 A 0.312 0.312 0 0 0 8.459 7.584 A 0.431 0.431 0 0 0 8.413 7.582 A 0.578 0.578 0 0 0 8.306 7.591 Q 8.184 7.614 8.12 7.694 A 0.343 0.343 0 0 0 8.066 7.792 Q 8.032 7.884 8.028 8.021 A 1.276 1.276 0 0 0 8.027 8.051 Z" id="top_labelLayer" stroke="#777777" fill="#777777" style="stroke:#777777;fill:#777777" vector-effect="non-scaling-stroke"/><path d="M 15.97 26.617 L 17.553 26.617 L 17.553 26.735 L 19.156 26.735 L 19.156 26.617 L 20.739 26.617 L 20.739 26.735 L 22.342 26.735 L 22.342 26.617 L 23.925 26.617 L 23.925 26.735 L 25.528 26.735 L 25.528 26.617 L 27.111 26.617 L 27.111 26.735 L 28.676 26.735 L 28.679 26.73 L 27.896 25.375 L 27.794 25.434 L 27.002 24.063 L 27.104 24.004 L 26.303 22.616 L 26.201 22.675 L 25.409 21.304 L 25.511 21.245 L 24.71 19.856 L 24.608 19.915 L 23.816 18.544 L 23.918 18.485 L 23.117 17.097 L 23.015 17.156 L 22.223 15.785 L 22.325 15.726 L 21.543 14.371 L 21.537 14.371 L 20.755 15.726 L 20.857 15.785 L 20.066 17.156 L 19.963 17.097 L 19.162 18.485 L 19.264 18.544 L 18.473 19.915 L 18.37 19.856 L 17.569 21.245 L 17.671 21.304 L 16.88 22.675 L 16.777 22.616 L 15.976 24.004 L 16.078 24.063 L 15.286 25.434 L 15.184 25.375 L 14.402 26.73 L 14.405 26.735 L 15.97 26.735 L 15.97 26.617 Z" id="bottom_outsideCutPath" stroke="#FF0000" stroke-width="0.001" style="stroke:#FF0000;stroke-width:0.001" vector-effect="non-scaling-stroke"/><path d="M 25.608 23.539 L 25.408 23.539 L 25.408 22.678 A 0.591 0.591 0 0 0 25.402 22.591 Q 25.395 22.547 25.381 22.511 A 0.242 0.242 0 0 0 25.34 22.441 A 0.211 0.211 0 0 0 25.242 22.378 Q 25.207 22.366 25.164 22.363 A 0.465 0.465 0 0 0 25.13 22.362 Q 24.999 22.362 24.915 22.415 A 0.265 0.265 0 0 0 24.853 22.469 Q 24.764 22.576 24.764 22.798 A 1.058 1.058 0 0 0 24.764 22.8 L 24.764 23.539 L 24.564 23.539 L 24.564 22.678 A 0.591 0.591 0 0 0 24.558 22.591 Q 24.551 22.547 24.537 22.511 A 0.242 0.242 0 0 0 24.496 22.441 A 0.21 0.21 0 0 0 24.399 22.378 Q 24.364 22.367 24.322 22.363 A 0.469 0.469 0 0 0 24.285 22.362 A 0.498 0.498 0 0 0 24.182 22.372 Q 24.118 22.385 24.071 22.417 A 0.263 0.263 0 0 0 24.009 22.475 A 0.336 0.336 0 0 0 23.959 22.57 Q 23.921 22.676 23.921 22.845 L 23.921 23.539 L 23.721 23.539 L 23.721 22.216 L 23.884 22.216 L 23.916 22.397 L 23.926 22.397 Q 23.983 22.3 24.086 22.246 A 0.476 0.476 0 0 1 24.274 22.193 A 0.575 0.575 0 0 1 24.317 22.192 Q 24.628 22.192 24.723 22.416 L 24.733 22.416 A 0.418 0.418 0 0 1 24.89 22.26 A 0.502 0.502 0 0 1 24.904 22.252 A 0.507 0.507 0 0 1 25.09 22.196 A 0.633 0.633 0 0 1 25.16 22.192 Q 25.311 22.192 25.412 22.244 A 0.33 0.33 0 0 1 25.496 22.307 Q 25.578 22.391 25.6 22.548 A 0.919 0.919 0 0 1 25.608 22.676 L 25.608 23.539 Z M 17.673 23.369 L 17.658 23.369 L 17.616 23.539 L 17.472 23.539 L 17.472 21.661 L 17.673 21.661 L 17.673 22.117 A 4.179 4.179 0 0 1 17.671 22.258 Q 17.668 22.329 17.663 22.392 L 17.673 22.392 Q 17.813 22.194 18.088 22.194 Q 18.349 22.194 18.493 22.372 A 0.591 0.591 0 0 1 18.597 22.572 Q 18.622 22.654 18.632 22.752 A 1.287 1.287 0 0 1 18.638 22.876 A 1.175 1.175 0 0 1 18.622 23.074 Q 18.604 23.179 18.565 23.264 A 0.563 0.563 0 0 1 18.492 23.383 Q 18.347 23.563 18.088 23.563 A 0.608 0.608 0 0 1 17.935 23.545 A 0.529 0.529 0 0 1 17.852 23.516 Q 17.745 23.468 17.673 23.369 Z M 21.09 23.374 L 21.09 23.527 A 0.197 0.197 0 0 1 21.066 23.536 Q 21.041 23.545 21.006 23.551 A 0.749 0.749 0 0 1 20.994 23.553 A 0.869 0.869 0 0 1 20.937 23.561 Q 20.91 23.563 20.887 23.563 A 0.514 0.514 0 0 1 20.88 23.563 A 0.524 0.524 0 0 1 20.725 23.543 Q 20.496 23.472 20.496 23.159 L 20.496 22.372 L 20.306 22.372 L 20.306 22.275 L 20.496 22.192 L 20.58 21.909 L 20.696 21.909 L 20.696 22.216 L 21.08 22.216 L 21.08 22.372 L 20.696 22.372 L 20.696 23.15 Q 20.696 23.234 20.724 23.291 A 0.194 0.194 0 0 0 20.753 23.334 Q 20.81 23.398 20.909 23.398 A 0.658 0.658 0 0 0 21.005 23.391 A 0.612 0.612 0 0 0 21.011 23.39 A 1.085 1.085 0 0 0 21.04 23.385 Q 21.068 23.38 21.087 23.375 A 0.302 0.302 0 0 0 21.09 23.374 Z M 21.963 23.374 L 21.963 23.527 A 0.197 0.197 0 0 1 21.939 23.536 Q 21.914 23.545 21.879 23.551 A 0.749 0.749 0 0 1 21.867 23.553 A 0.869 0.869 0 0 1 21.81 23.561 Q 21.783 23.563 21.759 23.563 A 0.514 0.514 0 0 1 21.753 23.563 A 0.524 0.524 0 0 1 21.598 23.543 Q 21.369 23.472 21.369 23.159 L 21.369 22.372 L 21.179 22.372 L 21.179 22.275 L 21.369 22.192 L 21.453 21.909 L 21.569 21.909 L 21.569 22.216 L 21.953 22.216 L 21.953 22.372 L 21.569 22.372 L 21.569 23.15 Q 21.569 23.234 21.597 23.291 A 0.194 0.194 0 0 0 21.626 23.334 Q 21.683 23.398 21.782 23.398 A 0.658 0.658 0 0 0 21.878 23.391 A 0.612 0.612 0 0 0 21.884 23.39 A 1.085 1.085 0 0 0 21.913 23.385 Q 21.941 23.38 21.96 23.375 A 0.302 0.302 0 0 0 21.963 23.374 Z M 20.112 23.078 A 1.035 1.035 0 0 0 20.13 22.876 A 1.176 1.176 0 0 0 20.129 22.845 Q 20.127 22.734 20.103 22.641 A 0.624 0.624 0 0 0 19.966 22.377 A 0.525 0.525 0 0 0 19.723 22.219 A 0.674 0.674 0 0 0 19.525 22.192 A 0.778 0.778 0 0 0 19.385 22.204 A 0.53 0.53 0 0 0 19.076 22.372 A 0.554 0.554 0 0 0 19.008 22.467 Q 18.955 22.558 18.932 22.675 A 1.041 1.041 0 0 0 18.914 22.876 A 1.003 1.003 0 0 0 18.927 23.039 A 0.741 0.741 0 0 0 18.989 23.241 A 0.659 0.659 0 0 0 19.003 23.27 A 0.543 0.543 0 0 0 19.201 23.48 A 0.558 0.558 0 0 0 19.33 23.537 A 0.644 0.644 0 0 0 19.517 23.563 A 0.778 0.778 0 0 0 19.652 23.552 A 0.534 0.534 0 0 0 19.967 23.382 Q 20.075 23.261 20.112 23.078 Z M 23.351 23.078 A 1.035 1.035 0 0 0 23.369 22.876 A 1.176 1.176 0 0 0 23.369 22.845 Q 23.366 22.734 23.342 22.641 A 0.624 0.624 0 0 0 23.206 22.377 A 0.525 0.525 0 0 0 22.962 22.219 A 0.674 0.674 0 0 0 22.765 22.192 A 0.778 0.778 0 0 0 22.625 22.204 A 0.53 0.53 0 0 0 22.315 22.372 A 0.554 0.554 0 0 0 22.247 22.467 Q 22.195 22.558 22.172 22.675 A 1.041 1.041 0 0 0 22.154 22.876 A 1.003 1.003 0 0 0 22.166 23.039 A 0.741 0.741 0 0 0 22.228 23.241 A 0.659 0.659 0 0 0 22.243 23.27 A 0.543 0.543 0 0 0 22.441 23.48 A 0.558 0.558 0 0 0 22.569 23.537 A 0.644 0.644 0 0 0 22.756 23.563 A 0.778 0.778 0 0 0 22.892 23.552 A 0.534 0.534 0 0 0 23.206 23.382 Q 23.315 23.261 23.351 23.078 Z M 19.122 22.876 Q 19.122 23.13 19.223 23.263 A 0.329 0.329 0 0 0 19.437 23.389 A 0.498 0.498 0 0 0 19.521 23.396 A 0.466 0.466 0 0 0 19.644 23.38 A 0.324 0.324 0 0 0 19.82 23.263 A 0.43 0.43 0 0 0 19.887 23.133 Q 19.922 23.026 19.922 22.876 A 1 1 0 0 0 19.913 22.734 Q 19.902 22.661 19.88 22.603 A 0.413 0.413 0 0 0 19.82 22.493 A 0.33 0.33 0 0 0 19.615 22.371 A 0.506 0.506 0 0 0 19.519 22.362 A 0.477 0.477 0 0 0 19.4 22.376 A 0.319 0.319 0 0 0 19.222 22.491 Q 19.122 22.62 19.122 22.876 Z M 22.361 22.876 Q 22.361 23.13 22.463 23.263 A 0.329 0.329 0 0 0 22.677 23.389 A 0.498 0.498 0 0 0 22.761 23.396 A 0.466 0.466 0 0 0 22.884 23.38 A 0.324 0.324 0 0 0 23.06 23.263 A 0.43 0.43 0 0 0 23.127 23.133 Q 23.162 23.026 23.162 22.876 A 1 1 0 0 0 23.152 22.734 Q 23.142 22.661 23.12 22.603 A 0.413 0.413 0 0 0 23.06 22.493 A 0.33 0.33 0 0 0 22.855 22.371 A 0.506 0.506 0 0 0 22.758 22.362 A 0.477 0.477 0 0 0 22.64 22.376 A 0.319 0.319 0 0 0 22.461 22.491 Q 22.361 22.62 22.361 22.876 Z M 18.059 22.362 Q 17.854 22.362 17.763 22.48 A 0.343 0.343 0 0 0 17.714 22.574 Q 17.68 22.668 17.674 22.811 A 1.545 1.545 0 0 0 17.673 22.876 Q 17.673 23.113 17.74 23.236 A 0.302 0.302 0 0 0 17.766 23.275 Q 17.849 23.383 18.023 23.394 A 0.644 0.644 0 0 0 18.064 23.396 A 0.4 0.4 0 0 0 18.178 23.38 A 0.288 0.288 0 0 0 18.339 23.261 A 0.46 0.46 0 0 0 18.396 23.138 Q 18.43 23.028 18.43 22.874 Q 18.43 22.629 18.348 22.502 A 0.333 0.333 0 0 0 18.339 22.489 A 0.292 0.292 0 0 0 18.153 22.371 A 0.464 0.464 0 0 0 18.059 22.362 Z" id="bottom_labelLayer" stroke="#777777" fill="#777777" style="stroke:#777777;fill:#777777" vector-effect="non-scaling-stroke"/></g></svg>